<?xml version="1.0" standalone="no"?>
<!DOCTYPE svg PUBLIC "-//W3C//DTD SVG 20010904//EN"
 "http://www.w3.org/TR/2001/REC-SVG-20010904/DTD/svg10.dtd">
<svg version="1.0" xmlns="http://www.w3.org/2000/svg"
 width="679.000000pt" height="679.000000pt" viewBox="0 0 679.000000 679.000000"
 preserveAspectRatio="xMidYMid meet">

<g transform="translate(0.000000,679.000000) scale(0.100000,-0.100000)"
fill="#000000" stroke="none">
<path d="M1898 6023 c34 -2 90 -2 125 0 34 2 6 3 -63 3 -69 0 -97 -1 -62 -3z"/>
<path d="M2178 6023 c12 -2 32 -2 45 0 12 2 2 4 -23 4 -25 0 -35 -2 -22 -4z"/>
<path d="M2598 6023 c23 -2 61 -2 85 0 23 2 4 4 -43 4 -47 0 -66 -2 -42 -4z"/>
<path d="M3058 6023 c12 -2 32 -2 45 0 12 2 2 4 -23 4 -25 0 -35 -2 -22 -4z"/>
<path d="M3276 6018 c3 -4 19 -8 36 -8 17 0 28 3 25 7 -10 9 -67 11 -61 1z"/>
<path d="M1648 6013 c6 -2 18 -2 25 0 6 3 1 5 -13 5 -14 0 -19 -2 -12 -5z"/>
<path d="M5108 6013 c6 -2 18 -2 25 0 6 3 1 5 -13 5 -14 0 -19 -2 -12 -5z"/>
<path d="M1598 6003 c7 -3 16 -2 19 1 4 3 -2 6 -13 5 -11 0 -14 -3 -6 -6z"/>
<path d="M2415 6000 l-800 -5 -57 -23 c-79 -32 -154 -102 -189 -177 -16 -33
-29 -69 -29 -80 1 -11 9 4 20 33 37 103 104 172 210 218 43 18 80 19 844 22
439 1 813 6 830 11 l31 9 -30 -1 c-16 -1 -390 -4 -830 -7z"/>
<path d="M5178 6003 c7 -3 16 -2 19 1 4 3 -2 6 -13 5 -11 0 -14 -3 -6 -6z"/>
<path d="M3321 5989 c-170 -20 -300 -132 -329 -284 -9 -44 -12 -655 -11 -2320
0 -1243 1 -2269 2 -2280 19 -146 141 -270 302 -305 22 -5 445 -9 940 -9 966
-1 959 -1 1042 50 21 13 41 23 44 22 4 -1 25 18 48 42 23 25 39 45 35 45 -4 0
0 8 9 18 20 22 46 84 54 126 3 17 4 1047 3 2289 -2 2293 -2 2274 -34 2398 -5
18 -19 37 -75 100 -48 56 -138 96 -241 109 -103 12 -1680 11 -1789 -1z m1881
-96 c75 -34 115 -71 144 -130 37 -75 43 -193 36 -672 l-5 -384 -25 49 c-13 26
-35 56 -48 67 -13 10 -30 24 -37 30 -6 7 -24 18 -39 26 -16 8 -28 18 -28 23 0
4 -7 8 -15 8 -8 0 -20 9 -27 20 -7 11 -23 20 -35 20 -12 0 -25 5 -28 10 -3 6
-26 19 -50 30 -24 11 -47 24 -50 30 -3 5 -19 10 -34 10 -16 0 -34 6 -40 14 -6
7 -33 19 -59 26 -26 7 -61 18 -79 26 -17 8 -41 14 -53 14 -12 0 -49 9 -83 19
-130 41 -235 55 -417 55 -177 0 -272 -11 -410 -46 -41 -10 -86 -21 -100 -24
-14 -3 -39 -12 -57 -20 -17 -8 -38 -14 -46 -14 -8 0 -40 -11 -71 -25 -31 -14
-68 -25 -81 -25 -14 0 -25 -5 -25 -10 0 -6 -22 -20 -50 -32 -27 -12 -50 -25
-50 -30 0 -4 -13 -8 -30 -8 -19 0 -30 -5 -30 -14 0 -7 -13 -19 -30 -26 -16 -7
-30 -16 -30 -21 0 -4 -10 -11 -22 -15 -12 -4 -31 -17 -41 -30 -10 -13 -25 -24
-32 -24 -17 0 -42 -45 -53 -97 -15 -66 -24 223 -20 602 3 225 9 363 16 385 19
59 69 128 112 155 87 55 68 54 1060 52 l915 -2 47 -22z m-247 -2230 c-144
-129 -357 -224 -581 -256 l-89 -14 72 -7 c113 -11 249 -52 368 -110 123 -60
205 -118 280 -198 28 -29 37 -41 20 -27 -344 298 -769 391 -1170 257 -149 -50
-315 -144 -416 -235 -22 -20 -39 -31 -39 -25 0 15 123 117 204 170 128 83 319
151 473 168 l68 7 -88 13 c-115 17 -193 39 -297 84 -92 39 -212 114 -251 157
-20 22 -15 21 28 -10 76 -53 235 -131 331 -161 354 -111 739 -47 1048 174 82
59 93 62 39 13z m-1876 -1420 c-4 -63 19 -107 103 -194 83 -85 147 -139 167
-139 6 0 11 -5 11 -10 0 -6 30 -24 68 -42 37 -17 69 -34 72 -38 3 -4 32 -17
65 -30 33 -13 64 -28 70 -32 5 -4 17 -8 27 -8 10 0 18 -4 18 -9 0 -5 8 -11 18
-14 27 -7 216 -59 227 -61 6 -2 18 -6 27 -10 27 -12 365 -22 448 -14 41 5 76
12 78 18 2 5 21 10 43 10 21 0 39 4 39 9 0 6 21 13 48 16 64 9 192 53 192 66
0 4 21 12 48 19 26 7 56 21 68 31 11 11 30 19 42 19 11 0 24 5 28 11 3 6 23
19 43 28 47 22 126 77 171 120 19 18 44 41 55 50 31 25 85 103 85 122 0 10 5
21 10 24 6 3 11 25 11 48 l2 42 8 -45 c4 -25 9 -281 10 -570 2 -463 0 -532
-15 -582 -23 -79 -70 -136 -141 -173 l-59 -30 -945 0 -946 0 -53 24 c-69 31
-127 98 -150 170 -15 50 -17 112 -17 611 1 305 4 563 8 573 10 26 18 21 16
-10z"/>
<path d="M3934 5850 c-48 -19 -67 -86 -40 -139 25 -48 46 -51 332 -51 l266 0
34 34 c50 50 43 115 -16 149 -24 15 -63 17 -292 16 -144 0 -272 -4 -284 -9z"/>
<path d="M1505 5970 c-3 -6 1 -7 9 -4 18 7 21 14 7 14 -6 0 -13 -4 -16 -10z"/>
<path d="M3155 5970 c-3 -6 1 -7 9 -4 18 7 21 14 7 14 -6 0 -13 -4 -16 -10z"/>
<path d="M5327 5936 c17 -15 48 -45 69 -69 20 -23 31 -33 23 -22 -22 34 -83
96 -104 107 -11 5 -6 -2 12 -16z"/>
<path d="M3094 5928 l-19 -23 23 19 c12 11 22 21 22 23 0 8 -8 2 -26 -19z"/>
<path d="M1415 5898 l-40 -43 43 40 c23 21 42 40 42 42 0 8 -9 0 -45 -39z"/>
<path d="M3020 5850 c-12 -16 -19 -30 -16 -30 2 0 14 14 26 30 12 17 19 30 16
30 -2 0 -14 -13 -26 -30z"/>
<path d="M1593 5745 c-116 -99 -111 -287 10 -390 105 -90 298 -70 357 37 l23
43 -33 -30 -33 -30 25 35 c96 134 53 304 -91 355 -80 28 -154 19 -226 -29
l-30 -19 29 31 c40 43 20 41 -31 -3z m144 -197 c-3 -7 -5 -2 -5 12 0 14 2 19
5 13 2 -7 2 -19 0 -25z m67 -2 c-6 -15 -24 -23 -24 -11 0 8 24 34 28 30 1 -1
0 -10 -4 -19z"/>
<path d="M2976 5765 c-3 -9 -6 -22 -5 -28 0 -7 5 -1 10 12 5 13 8 26 5 28 -2
2 -6 -3 -10 -12z"/>
<path d="M1321 5734 c0 -11 3 -14 6 -6 3 7 2 16 -1 19 -3 4 -6 -2 -5 -13z"/>
<path d="M2961 5704 c0 -11 3 -14 6 -6 3 7 2 16 -1 19 -3 4 -6 -2 -5 -13z"/>
<path d="M1312 5690 c0 -14 2 -19 5 -12 2 6 2 18 0 25 -3 6 -5 1 -5 -13z"/>
<path d="M5471 5684 c0 -11 3 -14 6 -6 3 7 2 16 -1 19 -3 4 -6 -2 -5 -13z"/>
<path d="M1333 5655 c0 -22 2 -30 4 -17 2 12 2 30 0 40 -3 9 -5 -1 -4 -23z"/>
<path d="M2953 5610 c0 -36 2 -50 4 -32 2 17 2 47 0 65 -2 17 -4 3 -4 -33z"/>
<path d="M1303 5570 c0 -36 2 -50 4 -32 2 17 2 47 0 65 -2 17 -4 3 -4 -33z"/>
<path d="M5483 5570 c0 -36 2 -50 4 -32 2 17 2 47 0 65 -2 17 -4 3 -4 -33z"/>
<path d="M1323 5560 c0 -30 2 -43 4 -27 2 15 2 39 0 55 -2 15 -4 2 -4 -28z"/>
<path d="M1323 3335 c-3 -2350 -5 -2242 50 -2352 14 -27 46 -68 72 -92 67 -61
134 -89 246 -101 53 -5 415 -10 832 -10 419 0 736 -4 733 -9 -3 -5 25 -8 62
-8 l67 1 -55 9 c-30 5 -71 13 -91 18 -20 5 -394 10 -830 12 l-794 2 -50 23
c-111 51 -175 121 -212 232 -17 52 -18 163 -23 2250 l-5 2195 -2 -2170z"/>
<path d="M1305 4980 c0 -278 1 -391 2 -253 2 139 2 367 0 506 -1 138 -2 25 -2
-253z"/>
<path d="M2276 5454 c-84 -30 -146 -108 -146 -182 0 -42 -18 -41 -23 1 -2 20
-4 12 -5 -24 -5 -145 90 -251 233 -263 53 -5 55 -4 19 4 -57 12 -144 57 -172
89 -29 32 -62 99 -61 126 0 11 7 -2 15 -28 29 -93 120 -157 223 -157 116 0
220 105 221 223 0 155 -157 265 -304 211z"/>
<path d="M5485 4975 c0 -275 1 -386 2 -247 2 139 2 364 0 500 -1 136 -2 22 -2
-253z"/>
<path d="M1707 5179 c-125 -30 -201 -127 -199 -255 1 -76 29 -140 84 -190 57
-51 101 -67 183 -68 59 0 78 4 117 27 89 52 133 133 131 242 -2 158 -162 282
-316 244z m81 -26 c-10 -2 -26 -2 -35 0 -10 3 -2 5 17 5 19 0 27 -2 18 -5z
m-43 -193 c3 -5 1 -10 -4 -10 -6 0 -11 5 -11 10 0 6 2 10 4 10 3 0 8 -4 11
-10z m-28 -42 c-3 -7 -5 -2 -5 12 0 14 2 19 5 13 2 -7 2 -19 0 -25z m100 -14
c-9 -9 -28 6 -21 18 4 6 10 6 17 -1 6 -6 8 -13 4 -17z"/>
<path d="M2460 5010 c-9 -6 -10 -10 -3 -10 6 0 15 5 18 10 8 12 4 12 -15 0z"/>
<path d="M2535 4910 c3 -5 8 -10 11 -10 2 0 4 5 4 10 0 6 -5 10 -11 10 -5 0
-7 -4 -4 -10z"/>
<path d="M2323 4898 c-99 -26 -94 -181 7 -202 63 -12 130 42 130 104 0 67 -69
116 -137 98z"/>
<path d="M2953 4840 c0 -36 2 -50 4 -32 2 17 2 47 0 65 -2 17 -4 3 -4 -33z"/>
<path d="M1698 4613 c7 -3 16 -2 19 1 4 3 -2 6 -13 5 -11 0 -14 -3 -6 -6z"/>
<path d="M1750 4610 c-18 -12 49 -12 95 0 25 6 21 8 -25 9 -30 0 -62 -4 -70
-9z"/>
<path d="M1296 4455 c4 -8 8 -15 10 -15 2 0 4 7 4 15 0 8 -4 15 -10 15 -5 0
-7 -7 -4 -15z"/>
<path d="M5480 4455 c0 -8 2 -15 4 -15 2 0 6 7 10 15 3 8 1 15 -4 15 -6 0 -10
-7 -10 -15z"/>
<path d="M1298 4009 c-1 -34 0 -63 5 -66 4 -2 7 25 7 61 0 36 -2 66 -4 66 -2
0 -6 -27 -8 -61z"/>
<path d="M5480 3949 c0 -5 5 -7 10 -4 6 3 10 8 10 11 0 2 -4 4 -10 4 -5 0 -10
-5 -10 -11z"/>
<path d="M1305 2620 c0 -723 1 -1019 2 -658 2 362 2 954 0 1316 -1 361 -2 65
-2 -658z"/>
<path d="M2950 2632 l5 -1287 3 1279 c1 704 -1 1283 -5 1287 -5 5 -6 -571 -3
-1279z"/>
<path d="M5485 2615 c0 -720 1 -1014 2 -652 2 362 2 952 0 1310 -1 359 -2 63
-2 -658z"/>
<path d="M1303 1210 c0 -36 2 -50 4 -32 2 17 2 47 0 65 -2 17 -4 3 -4 -33z"/>
<path d="M2953 1195 c0 -44 2 -61 4 -37 2 23 2 59 0 80 -2 20 -4 1 -4 -43z"/>
<path d="M5483 1210 c0 -36 2 -50 4 -32 2 17 2 47 0 65 -2 17 -4 3 -4 -33z"/>
<path d="M1312 1100 c0 -14 2 -19 5 -12 2 6 2 18 0 25 -3 6 -5 1 -5 -13z"/>
<path d="M2962 1090 c0 -14 2 -19 5 -12 2 6 2 18 0 25 -3 6 -5 1 -5 -13z"/>
<path d="M5471 1094 c0 -11 3 -14 6 -6 3 7 2 16 -1 19 -3 4 -6 -2 -5 -13z"/>
<path d="M2971 1044 c0 -11 3 -14 6 -6 3 7 2 16 -1 19 -3 4 -6 -2 -5 -13z"/>
<path d="M2980 1016 c0 -11 30 -66 36 -66 2 0 -3 15 -12 33 -19 36 -24 44 -24
33z"/>
<path d="M3039 914 c11 -17 37 -43 58 -58 l38 -28 -30 27 c-16 15 -43 41 -58
58 l-29 32 21 -31z"/>
<path d="M1415 891 c22 -23 49 -47 60 -53 11 -6 18 -9 15 -6 -3 2 -30 26 -60
53 -54 49 -54 49 -15 6z"/>
<path d="M5384 908 l-19 -23 23 19 c12 11 22 21 22 23 0 8 -8 2 -26 -19z"/>
<path d="M5315 849 c-52 -40 -57 -46 -17 -23 29 16 73 55 61 53 -2 0 -22 -14
-44 -30z"/>
<path d="M1507 819 c7 -7 15 -10 18 -7 3 3 -2 9 -12 12 -14 6 -15 5 -6 -5z"/>
<path d="M1598 783 c7 -3 16 -2 19 1 4 3 -2 6 -13 5 -11 0 -14 -3 -6 -6z"/>
<path d="M5178 783 c7 -3 16 -2 19 1 4 3 -2 6 -13 5 -11 0 -14 -3 -6 -6z"/>
<path d="M1653 773 c9 -2 23 -2 30 0 6 3 -1 5 -18 5 -16 0 -22 -2 -12 -5z"/>
<path d="M5118 773 c6 -2 18 -2 25 0 6 3 1 5 -13 5 -14 0 -19 -2 -12 -5z"/>
</g>
</svg>
